<svg xmlns="http://www.w3.org/2000/svg" viewBox="0 0 861.62 750.36"><defs><style>.cls-1,.cls-2{font-size:46px;fill:#a7cbee;}.cls-1{font-family:CourierNewPS-BoldMT, Courier New;font-weight:700;}.cls-2{font-family:CourierNewPSMT, Courier New;}</style></defs><g id="Layer_2" data-name="Layer 2"><g id="Layer_1-2" data-name="Layer 1"><text class="cls-1" transform="translate(319.39 430.11) rotate(-128.72)">E</text><text class="cls-1" transform="translate(304.73 412.1) rotate(-87.47)">N</text><text class="cls-1" transform="translate(305.21 387.59) rotate(-58.76)">T</text><text class="cls-1" transform="translate(317.87 366.01) rotate(-35.5)">E</text><text class="cls-1" transform="translate(338.1 350.97) rotate(-13.71)">R</text><text class="cls-1" transform="translate(362.28 344.53) rotate(9.68)"> </text><text class="cls-1" transform="translate(387.25 348.49) rotate(30.22)">S</text><text class="cls-1" transform="translate(409.44 361.14) rotate(48.15)">I</text><text class="cls-1" transform="matrix(0.42, 0.91, -0.91, 0.42, 426.78, 380.03)">T</text><text class="cls-1" transform="translate(437.71 403.1) rotate(83.21)">E</text><text class="cls-2" transform="translate(440.95 428.59) rotate(99.59)">.</text><text class="cls-2" transform="translate(436.84 454.12) rotate(114.55)">.</text><text class="cls-2" transform="translate(426.31 477.76) rotate(129.31)">.</text><text class="cls-2" transform="matrix(-0.82, 0.57, -0.57, -0.82, 410.24, 497.89)">S</text><text class="cls-2" transform="translate(389.4 512.76) rotate(162.65)">K</text><text class="cls-2" transform="matrix(-1, 0.07, -0.07, -1, 364.61, 520.47)">E</text><text class="cls-2" transform="matrix(-1, -0.08, 0.08, -1, 338.12, 522.06)">T</text><text class="cls-2" transform="translate(311.19 519.76) rotate(-170.72)">C</text><text class="cls-2" transform="translate(284.64 515.57) rotate(-164.86)">H</text><text class="cls-2" transform="matrix(-0.91, -0.41, 0.41, -0.91, 259, 508.87)">B</text><text class="cls-2" transform="translate(235.04 498.48) rotate(-143.19)">O</text><text class="cls-2" transform="matrix(-0.61, -0.79, 0.79, -0.61, 214.21, 483.25)">O</text><text class="cls-2" transform="translate(198.27 462.83) rotate(-113.4)">K</text><text class="cls-2" transform="translate(187.85 438.7) rotate(-102.48)"> </text><text class="cls-2" transform="translate(182.16 412.63) rotate(-95.07)">2</text><text class="cls-2" transform="matrix(-0.01, -1, 1, -0.01, 179.85, 385.72)">0</text><text class="cls-2" transform="translate(179.67 358.37) rotate(-88.37)">2</text><text class="cls-2" transform="matrix(0.09, -1, 1, 0.09, 180.27, 331.23)">1</text><text class="cls-2" transform="translate(182.57 304.62) rotate(-77.48)">-</text><text class="cls-2" transform="translate(188.21 278.79) rotate(-67.82)"> </text><text class="cls-2" transform="translate(198.14 254.25) rotate(-58.65)">W</text><text class="cls-2" transform="matrix(0.64, -0.77, 0.77, 0.64, 211.9, 231.55)">E</text><text class="cls-2" transform="translate(228.95 211.12) rotate(-41.89)">B</text><text class="cls-2" transform="translate(248.73 193.3) rotate(-34.01)"> </text><text class="cls-2" transform="translate(270.78 178.33) rotate(-26.19)">S</text><text class="cls-2" transform="translate(294.63 166.52) rotate(-18.21)">K</text><text class="cls-2" transform="matrix(0.98, -0.18, 0.18, 0.98, 319.91, 158.17)">E</text><text class="cls-2" transform="translate(346.16 153.37) rotate(-2.92)">T</text><text class="cls-2" transform="matrix(1, 0.07, -0.07, 1, 372.88, 151.97)">C</text><text class="cls-2" transform="translate(399.59 153.82) rotate(10.6)">H</text><text class="cls-2" transform="translate(425.97 158.73) rotate(16.85)">E</text><text class="cls-2" transform="translate(451.68 166.48) rotate(22.89)">S</text><text class="cls-2" transform="matrix(0.88, 0.48, -0.48, 0.88, 476.44, 176.89)">-</text><text class="cls-2" transform="translate(499.99 189.83) rotate(34.74)"> </text><text class="cls-2" transform="matrix(0.76, 0.65, -0.65, 0.76, 522.13, 205.16)">D</text><text class="cls-2" transform="translate(542.72 222.54) rotate(45.33)">R</text><text class="cls-2" transform="matrix(0.64, 0.77, -0.77, 0.64, 561.72, 241.73)">A</text><text class="cls-2" transform="matrix(0.58, 0.82, -0.82, 0.58, 579.06, 262.49)">W</text><text class="cls-2" transform="translate(594.71 284.55) rotate(58.92)">I</text><text class="cls-2" transform="matrix(0.45, 0.89, -0.89, 0.45, 608.71, 307.75)">N</text><text class="cls-2" transform="matrix(0.39, 0.92, -0.92, 0.39, 621.04, 331.89)">G</text><text class="cls-2" transform="matrix(0.28, 0.96, -0.96, 0.28, 631.92, 356.33)">S</text><text class="cls-2" transform="matrix(0.03, 1, -1, 0.03, 639.61, 381.15)">-</text><text class="cls-2" transform="translate(640.24 407.11) rotate(101.48)"> </text><text class="cls-2" transform="translate(634.44 433.56) rotate(105.52)">M</text><text class="cls-2" transform="translate(627.05 460.14) rotate(105.54)">O<tspan x="27.63" y="0">D</tspan></text><text class="cls-2" transform="matrix(-0.29, 0.96, -0.96, -0.29, 612.49, 513.26)">E</text><text class="cls-2" transform="matrix(-0.44, 0.9, -0.9, -0.44, 605.52, 538.79)">L</text><text class="cls-2" transform="matrix(-0.69, 0.73, -0.73, -0.69, 594.51, 561.94)">S</text><text class="cls-2" transform="matrix(-0.8, 0.6, -0.6, -0.8, 576.03, 580.74)">-</text><text class="cls-2" transform="translate(552.94 597.49) rotate(140.52)"> </text><text class="cls-2" transform="translate(530.73 616.05) rotate(136.42)">N</text><text class="cls-2" transform="matrix(-0.72, 0.7, -0.7, -0.72, 510.85, 635.15)">O</text><text class="cls-2" transform="matrix(-0.75, 0.66, -0.66, -0.75, 491.38, 654.24)">T</text><text class="cls-2" transform="translate(471.38 672.18) rotate(144.25)">E</text><text class="cls-2" transform="translate(449.93 687.83) rotate(152.96)">S</text><text class="cls-2" transform="translate(426.35 699.92) rotate(162.04)">-</text><text class="cls-2" transform="translate(401.04 708.16) rotate(170.1)"> </text><text class="cls-2" transform="matrix(-1, 0.05, -0.05, -1, 374.72, 712.76)">A</text><text class="cls-2" transform="matrix(-1, -0.06, 0.06, -1, 347.91, 714.12)">R</text><text class="cls-2" transform="translate(321.05 712.56) rotate(-171.12)">C</text><text class="cls-2" transform="translate(294.41 708.42) rotate(-165.97)">H</text><text class="cls-2" transform="translate(268.26 701.92) rotate(-160.93)">I</text><text class="cls-2" transform="translate(242.73 693.11) rotate(-155.93)">V</text><text class="cls-2" transform="translate(218.1 682.14) rotate(-150.97)">E</text><text class="cls-2" transform="translate(194.49 669.08) rotate(-145.99)"> </text><text class="cls-2" transform="matrix(-0.78, -0.63, 0.63, -0.78, 172.11, 654.01)">I</text><text class="cls-2" transform="matrix(-0.72, -0.7, 0.7, -0.72, 151.16, 637.06)">M</text><text class="cls-2" transform="translate(131.81 618.28) rotate(-130.71)">A</text><text class="cls-2" transform="translate(114.19 597.83) rotate(-125.82)">G</text><text class="cls-2" transform="translate(98.36 575.92) rotate(-121.15)">E</text><text class="cls-2" transform="translate(84.36 552.78) rotate(-116.7)">S</text><text class="cls-2" transform="matrix(-0.38, -0.92, 0.92, -0.38, 72.19, 528.6)">-</text><text class="cls-2" transform="translate(61.84 503.58) rotate(-108.35)"> </text><text class="cls-1" transform="translate(53.3 477.87) rotate(-104.38)">E</text><text class="cls-1" transform="translate(46.55 451.6) rotate(-100.52)">N</text><text class="cls-1" transform="translate(41.59 424.89) rotate(-96.9)">T</text><text class="cls-1" transform="translate(38.32 397.94) rotate(-93.47)">E</text><text class="cls-1" transform="translate(36.67 370.8) rotate(-90.25)">R</text><text class="cls-1" transform="translate(36.55 343.58) rotate(-87.21)"> </text><text class="cls-1" transform="matrix(0.1, -1, 1, 0.1, 37.88, 316.36)">S</text><text class="cls-1" transform="translate(40.56 289.23) rotate(-81.67)">I</text><text class="cls-1" transform="translate(44.51 262.24) rotate(-79.15)">T</text><text class="cls-1" transform="translate(49.57 235.47) rotate(-76.22)">E</text><text class="cls-1" transform="matrix(0.31, -0.95, 0.95, 0.31, 55.92, 209.2)">.</text><text class="cls-1" transform="matrix(0.42, -0.91, 0.91, 0.42, 64.24, 183.7)">.</text><text class="cls-1" transform="matrix(0.54, -0.84, 0.84, 0.54, 75.2, 159.45)">.</text></g></g></svg>